<svg xmlns="http://www.w3.org/2000/svg" xmlns:xlink="http://www.w3.org/1999/xlink" width="500" zoomAndPan="magnify" viewBox="0 0 375 187.499995" height="250" preserveAspectRatio="xMidYMid meet" version="1.0"><defs><g/></defs><g fill="#00a455" fill-opacity="1"><g transform="translate(50.473625, 134.650093)"><g><path d="M 20.234375 -54.859375 L 1.21875 -54.859375 L 1.21875 -85.34375 L 70.84375 -85.34375 L 70.84375 -54.859375 L 51.8125 -54.859375 L 51.8125 0 L 20.234375 0 Z M 20.234375 -54.859375 "/></g></g></g><path stroke-linecap="butt" transform="matrix(0.748005, 0, 0, 0.748005, 100.394508, 19.236553)" fill="none" stroke-linejoin="miter" d="M 55.433923 125.910097 C 50.603367 125.910097 46.054812 125.006652 41.788256 123.189319 C 37.5217 121.356318 33.7617 118.813096 30.518699 115.570096 C 27.275699 112.327096 24.742921 108.567095 22.93081 104.300539 C 21.113476 100.033984 20.20481 95.485428 20.20481 90.654872 C 20.20481 85.751205 21.113476 81.18176 22.93081 76.95176 C 24.742921 72.721759 27.275699 68.98787 30.518699 65.739648 C 33.7617 62.496648 37.5217 59.969092 41.788256 58.151758 C 46.054812 56.334425 50.603367 55.43098 55.433923 55.43098 C 60.33759 55.43098 64.907035 56.334425 69.137035 58.151758 C 73.382702 59.969092 77.121814 62.496648 80.349147 65.739648 C 83.592147 68.98787 86.119703 72.721759 87.937037 76.95176 C 89.770037 81.18176 90.689148 85.751205 90.689148 90.654872 C 90.689148 95.485428 89.770037 100.033984 87.937037 104.300539 C 86.119703 108.567095 83.592147 112.327096 80.349147 115.570096 C 77.121814 118.813096 73.382702 121.356318 69.137035 123.189319 C 64.907035 125.006652 60.33759 125.910097 55.433923 125.910097 Z M 55.433923 84.602316 C 53.773257 84.602316 52.342368 85.197649 51.146479 86.39876 C 49.966256 87.57376 49.376145 88.994205 49.376145 90.654872 C 49.376145 92.315539 49.966256 93.746428 51.146479 94.942317 C 52.342368 96.122539 53.773257 96.71265 55.433923 96.71265 C 57.09459 96.71265 58.515035 96.122539 59.690035 94.942317 C 60.891146 93.746428 61.486479 92.315539 61.486479 90.654872 C 61.486479 88.994205 60.891146 87.57376 59.690035 86.39876 C 58.515035 85.197649 57.09459 84.602316 55.433923 84.602316 Z M 55.433923 84.602316 " stroke="#fff9f9" stroke-width="8.900025" stroke-opacity="1" stroke-miterlimit="4"/><g fill="#00a455" fill-opacity="1"><g transform="translate(114.79361, 111.989207)"><g><path d="M 27.078125 1.421875 C 23.460938 1.421875 20.054688 0.742188 16.859375 -0.609375 C 13.671875 -1.972656 10.863281 -3.867188 8.4375 -6.296875 C 6.007812 -8.722656 4.113281 -11.535156 2.75 -14.734375 C 1.382812 -17.929688 0.703125 -21.332031 0.703125 -24.9375 C 0.703125 -28.613281 1.382812 -32.03125 2.75 -35.1875 C 4.113281 -38.351562 6.007812 -41.148438 8.4375 -43.578125 C 10.863281 -46.003906 13.671875 -47.898438 16.859375 -49.265625 C 20.054688 -50.628906 23.460938 -51.3125 27.078125 -51.3125 C 30.742188 -51.3125 34.160156 -50.628906 37.328125 -49.265625 C 40.492188 -47.898438 43.289062 -46.003906 45.71875 -43.578125 C 48.144531 -41.148438 50.035156 -38.351562 51.390625 -35.1875 C 52.753906 -32.03125 53.4375 -28.613281 53.4375 -24.9375 C 53.4375 -21.332031 52.753906 -17.929688 51.390625 -14.734375 C 50.035156 -11.535156 48.144531 -8.722656 45.71875 -6.296875 C 43.289062 -3.867188 40.492188 -1.972656 37.328125 -0.609375 C 34.160156 0.742188 30.742188 1.421875 27.078125 1.421875 Z M 27.078125 -29.46875 C 25.828125 -29.46875 24.757812 -29.023438 23.875 -28.140625 C 22.988281 -27.253906 22.546875 -26.1875 22.546875 -24.9375 C 22.546875 -23.695312 22.988281 -22.632812 23.875 -21.75 C 24.757812 -20.863281 25.828125 -20.421875 27.078125 -20.421875 C 28.316406 -20.421875 29.378906 -20.863281 30.265625 -21.75 C 31.148438 -22.632812 31.59375 -23.695312 31.59375 -24.9375 C 31.59375 -26.1875 31.148438 -27.253906 30.265625 -28.140625 C 29.378906 -29.023438 28.316406 -29.46875 27.078125 -29.46875 Z M 27.078125 -29.46875 "/></g></g></g><path stroke-linecap="butt" transform="matrix(0.748005, 0, 0, 0.748005, 139.550854, 44.148492)" fill="none" stroke-linejoin="miter" d="M 86.840243 40.942153 L 86.840243 90.772601 C 86.840243 95.597934 85.921132 100.14649 84.088131 104.418268 C 82.270798 108.684824 79.743242 112.439602 76.49502 115.687825 C 73.25202 118.930825 69.512908 121.468825 65.28813 123.307047 C 61.05813 125.119159 56.488685 126.027825 51.585018 126.027825 C 46.754462 126.027825 42.205906 125.119159 37.93935 123.307047 C 33.667572 121.468825 29.933683 118.930825 26.727239 115.687825 C 23.520794 112.439602 21.008905 108.684824 19.196794 104.418268 C 17.37946 100.14649 16.470793 95.597934 16.470793 90.772601 C 16.470793 85.863711 17.37946 81.299489 19.196794 77.069489 C 21.008905 72.839488 23.520794 69.100377 26.727239 65.857377 C 29.933683 62.614377 33.667572 60.081599 37.93935 58.269487 C 42.205906 56.452154 46.754462 55.543487 51.585018 55.543487 L 55.987352 55.543487 L 55.987352 84.714822 L 51.585018 84.714822 C 49.924351 84.714822 48.514351 85.315378 47.355018 86.511267 C 46.211351 87.691489 45.642129 89.111934 45.642129 90.772601 C 45.642129 92.433267 46.211351 93.864156 47.355018 95.060045 C 48.514351 96.235046 49.924351 96.825157 51.585018 96.825157 C 53.318796 96.825157 54.760129 96.235046 55.898574 95.060045 C 57.057907 93.864156 57.637574 92.433267 57.637574 90.772601 L 57.637574 40.942153 Z M 86.840243 40.942153 " stroke="#fff9f9" stroke-width="8.900025" stroke-opacity="1" stroke-miterlimit="4"/><g fill="#00a455" fill-opacity="1"><g transform="translate(151.156623, 136.901145)"><g><path d="M 53.34375 -62.140625 L 53.34375 -24.859375 C 53.34375 -21.242188 52.660156 -17.835938 51.296875 -14.640625 C 49.941406 -11.453125 48.050781 -8.644531 45.625 -6.21875 C 43.195312 -3.789062 40.398438 -1.894531 37.234375 -0.53125 C 34.066406 0.832031 30.648438 1.515625 26.984375 1.515625 C 23.367188 1.515625 19.960938 0.832031 16.765625 -0.53125 C 13.578125 -1.894531 10.785156 -3.789062 8.390625 -6.21875 C 5.992188 -8.644531 4.113281 -11.453125 2.75 -14.640625 C 1.382812 -17.835938 0.703125 -21.242188 0.703125 -24.859375 C 0.703125 -28.523438 1.382812 -31.941406 2.75 -35.109375 C 4.113281 -38.273438 5.992188 -41.070312 8.390625 -43.5 C 10.785156 -45.925781 13.578125 -47.816406 16.765625 -49.171875 C 19.960938 -50.535156 23.367188 -51.21875 26.984375 -51.21875 L 30.265625 -51.21875 L 30.265625 -29.375 L 26.984375 -29.375 C 25.742188 -29.375 24.691406 -28.929688 23.828125 -28.046875 C 22.972656 -27.160156 22.546875 -26.097656 22.546875 -24.859375 C 22.546875 -23.609375 22.972656 -22.539062 23.828125 -21.65625 C 24.691406 -20.769531 25.742188 -20.328125 26.984375 -20.328125 C 28.285156 -20.328125 29.363281 -20.769531 30.21875 -21.65625 C 31.082031 -22.539062 31.515625 -23.609375 31.515625 -24.859375 L 31.515625 -62.140625 Z M 53.34375 -62.140625 "/></g></g></g><g fill="#00a455" fill-opacity="1"><g transform="translate(199.524221, 136.901145)"><g><path d="M 26.546875 -51.3125 C 30.085938 -51.3125 33.394531 -50.644531 36.46875 -49.3125 C 39.550781 -47.976562 42.273438 -46.140625 44.640625 -43.796875 C 47.015625 -41.460938 48.863281 -38.742188 50.1875 -35.640625 C 51.519531 -32.535156 52.1875 -29.207031 52.1875 -25.65625 L 52.1875 0 L 30.890625 0 L 30.890625 -25.65625 C 30.890625 -26.832031 30.457031 -27.863281 29.59375 -28.75 C 28.738281 -29.644531 27.722656 -30.09375 26.546875 -30.09375 C 25.296875 -30.09375 24.242188 -29.644531 23.390625 -28.75 C 22.535156 -27.863281 22.109375 -26.832031 22.109375 -25.65625 C 22.109375 -24.46875 22.535156 -23.429688 23.390625 -22.546875 C 24.242188 -21.660156 25.296875 -21.21875 26.546875 -21.21875 L 29.640625 -21.21875 L 29.640625 0 L 26.546875 0 C 22.992188 0 19.660156 -0.664062 16.546875 -2 C 13.441406 -3.332031 10.71875 -5.179688 8.375 -7.546875 C 6.039062 -9.910156 4.207031 -12.628906 2.875 -15.703125 C 1.550781 -18.785156 0.890625 -22.101562 0.890625 -25.65625 C 0.890625 -29.207031 1.550781 -32.535156 2.875 -35.640625 C 4.207031 -38.742188 6.039062 -41.460938 8.375 -43.796875 C 10.71875 -46.140625 13.441406 -47.976562 16.546875 -49.3125 C 19.660156 -50.644531 22.992188 -51.3125 26.546875 -51.3125 Z M 26.546875 -51.3125 "/></g></g></g><g fill="#2a644f" fill-opacity="1"><g transform="translate(250.015836, 72.429292)"><g><path d="M 2.390625 -2.375 L 0.765625 -0.765625 L -7.796875 -9.40625 L -2.03125 -15.125 L -0.578125 -13.671875 L -4.71875 -9.5625 L -2.609375 -7.421875 L 1.109375 -11.09375 L 2.53125 -9.65625 L -1.1875 -5.984375 Z M 2.390625 -2.375 "/></g></g></g><g fill="#2a644f" fill-opacity="1"><g transform="translate(258.422878, 64.204656)"><g><path d="M 6.09375 -2.375 C 5.175781 -1.976562 4.304688 -1.789062 3.484375 -1.8125 C 2.660156 -1.832031 1.910156 -2.015625 1.234375 -2.359375 C 0.566406 -2.703125 -0.0234375 -3.175781 -0.546875 -3.78125 C -1.066406 -4.382812 -1.492188 -5.070312 -1.828125 -5.84375 C -2.160156 -6.625 -2.367188 -7.410156 -2.453125 -8.203125 C -2.535156 -8.992188 -2.46875 -9.753906 -2.25 -10.484375 C -2.039062 -11.210938 -1.660156 -11.875 -1.109375 -12.46875 C -0.554688 -13.0625 0.175781 -13.554688 1.09375 -13.953125 C 2.019531 -14.359375 2.890625 -14.554688 3.703125 -14.546875 C 4.523438 -14.535156 5.269531 -14.359375 5.9375 -14.015625 C 6.613281 -13.671875 7.210938 -13.195312 7.734375 -12.59375 C 8.253906 -11.988281 8.679688 -11.296875 9.015625 -10.515625 C 9.347656 -9.742188 9.554688 -8.960938 9.640625 -8.171875 C 9.722656 -7.378906 9.65625 -6.617188 9.4375 -5.890625 C 9.226562 -5.160156 8.847656 -4.492188 8.296875 -3.890625 C 7.753906 -3.285156 7.019531 -2.78125 6.09375 -2.375 Z M 5.28125 -4.25 C 5.96875 -4.550781 6.476562 -4.96875 6.8125 -5.5 C 7.144531 -6.039062 7.3125 -6.660156 7.3125 -7.359375 C 7.320312 -8.054688 7.160156 -8.789062 6.828125 -9.5625 C 6.492188 -10.34375 6.070312 -10.96875 5.5625 -11.4375 C 5.0625 -11.90625 4.5 -12.203125 3.875 -12.328125 C 3.257812 -12.453125 2.609375 -12.363281 1.921875 -12.0625 C 1.242188 -11.769531 0.734375 -11.351562 0.390625 -10.8125 C 0.046875 -10.28125 -0.125 -9.671875 -0.125 -8.984375 C -0.132812 -8.296875 0.0234375 -7.5625 0.359375 -6.78125 C 0.691406 -6.007812 1.109375 -5.382812 1.609375 -4.90625 C 2.117188 -4.425781 2.6875 -4.125 3.3125 -4 C 3.945312 -3.875 4.601562 -3.957031 5.28125 -4.25 Z M 5.28125 -4.25 "/></g></g></g><g fill="#2a644f" fill-opacity="1"><g transform="translate(272.479445, 58.799439)"><g><path d="M 8.203125 -5.40625 L 10.46875 -0.15625 L 8.03125 -0.125 L 6.015625 -4.953125 L 3.296875 -4.90625 L 3.375 -0.046875 L 1.078125 -0.015625 L 0.890625 -12.1875 L 6.140625 -12.265625 C 6.910156 -12.273438 7.585938 -12.160156 8.171875 -11.921875 C 8.753906 -11.679688 9.207031 -11.300781 9.53125 -10.78125 C 9.863281 -10.257812 10.035156 -9.578125 10.046875 -8.734375 C 10.066406 -7.941406 9.910156 -7.257812 9.578125 -6.6875 C 9.242188 -6.113281 8.785156 -5.6875 8.203125 -5.40625 Z M 5.859375 -10.203125 L 3.21875 -10.15625 L 3.265625 -6.921875 L 5.90625 -6.96875 C 6.519531 -6.976562 6.984375 -7.125 7.296875 -7.40625 C 7.617188 -7.6875 7.78125 -8.09375 7.78125 -8.625 C 7.769531 -9.144531 7.597656 -9.539062 7.265625 -9.8125 C 6.929688 -10.082031 6.460938 -10.210938 5.859375 -10.203125 Z M 5.859375 -10.203125 "/></g></g></g><g fill="#2a644f" fill-opacity="1"><g transform="translate(285.84508, 59.402832)"><g/></g></g><g fill="#2a644f" fill-opacity="1"><g transform="translate(292.407219, 61.050098)"><g><path d="M 5.796875 3.546875 L 3.75 2.296875 L 6.234375 -1.765625 L 6.3125 -10.40625 L 8.59375 -9 L 8.40625 -3.046875 L 13.640625 -5.90625 L 15.921875 -4.515625 L 8.28125 -0.515625 Z M 5.796875 3.546875 "/></g></g></g><g fill="#2a644f" fill-opacity="1"><g transform="translate(303.549238, 68.134667)"><g><path d="M 3.65625 5.40625 C 3.070312 4.601562 2.695312 3.800781 2.53125 3 C 2.363281 2.195312 2.375 1.425781 2.5625 0.6875 C 2.75 -0.0390625 3.078125 -0.722656 3.546875 -1.359375 C 4.023438 -2.003906 4.609375 -2.578125 5.296875 -3.078125 C 5.972656 -3.566406 6.691406 -3.9375 7.453125 -4.1875 C 8.210938 -4.4375 8.96875 -4.535156 9.71875 -4.484375 C 10.476562 -4.441406 11.210938 -4.210938 11.921875 -3.796875 C 12.628906 -3.390625 13.273438 -2.785156 13.859375 -1.984375 C 14.453125 -1.160156 14.832031 -0.351562 15 0.4375 C 15.164062 1.238281 15.15625 2.003906 14.96875 2.734375 C 14.78125 3.460938 14.445312 4.144531 13.96875 4.78125 C 13.488281 5.425781 12.910156 5.992188 12.234375 6.484375 C 11.546875 6.984375 10.820312 7.359375 10.0625 7.609375 C 9.3125 7.859375 8.554688 7.960938 7.796875 7.921875 C 7.046875 7.878906 6.316406 7.65625 5.609375 7.25 C 4.898438 6.84375 4.25 6.226562 3.65625 5.40625 Z M 5.3125 4.203125 C 5.757812 4.816406 6.28125 5.226562 6.875 5.4375 C 7.46875 5.65625 8.101562 5.6875 8.78125 5.53125 C 9.457031 5.382812 10.140625 5.0625 10.828125 4.5625 C 11.503906 4.070312 12.015625 3.53125 12.359375 2.9375 C 12.710938 2.34375 12.882812 1.726562 12.875 1.09375 C 12.863281 0.457031 12.632812 -0.164062 12.1875 -0.78125 C 11.757812 -1.375 11.242188 -1.773438 10.640625 -1.984375 C 10.035156 -2.203125 9.394531 -2.238281 8.71875 -2.09375 C 8.050781 -1.945312 7.378906 -1.628906 6.703125 -1.140625 C 6.015625 -0.640625 5.492188 -0.09375 5.140625 0.5 C 4.785156 1.101562 4.617188 1.722656 4.640625 2.359375 C 4.660156 2.992188 4.882812 3.609375 5.3125 4.203125 Z M 5.3125 4.203125 "/></g></g></g><g fill="#2a644f" fill-opacity="1"><g transform="translate(311.943882, 80.610567)"><g><path d="M 1.109375 5.765625 C 0.835938 4.628906 0.804688 3.671875 1.015625 2.890625 C 1.234375 2.109375 1.648438 1.46875 2.265625 0.96875 C 2.878906 0.476562 3.632812 0.128906 4.53125 -0.078125 L 12.078125 -1.8125 L 12.59375 0.453125 L 5.046875 2.1875 C 4.554688 2.300781 4.132812 2.476562 3.78125 2.71875 C 3.4375 2.96875 3.195312 3.300781 3.0625 3.71875 C 2.9375 4.144531 2.953125 4.675781 3.109375 5.3125 C 3.253906 5.957031 3.472656 6.4375 3.765625 6.75 C 4.066406 7.070312 4.425781 7.265625 4.84375 7.328125 C 5.269531 7.390625 5.726562 7.363281 6.21875 7.25 L 13.765625 5.515625 L 14.28125 7.765625 L 6.734375 9.5 C 5.835938 9.707031 5.007812 9.726562 4.25 9.5625 C 3.488281 9.40625 2.835938 9.015625 2.296875 8.390625 C 1.753906 7.773438 1.359375 6.898438 1.109375 5.765625 Z M 1.109375 5.765625 "/></g></g></g><g fill="#00a455" fill-opacity="1"><g transform="translate(253.214592, 136.901145)"><g><path d="M 0.890625 0 L 0.890625 -62.21875 L 22.71875 -62.21875 L 22.71875 -30.796875 L 32.84375 -49.796875 L 55.828125 -49.796875 L 41.890625 -24.9375 L 57.515625 0 L 34.53125 0 L 22.71875 -19.703125 L 22.71875 0 Z M 0.890625 0 "/></g></g></g></svg>